<mxfile host="app.diagrams.net" agent="Mozilla/5.0 (X11; Linux x86_64) AppleWebKit/537.36 (KHTML, like Gecko) Chrome/140.0.0.0 Safari/537.36" version="28.2.0">
  <diagram name="Page-1" id="az93Pd6GK8uW1dRhM0An">
    <mxGraphModel dx="2202" dy="924" grid="1" gridSize="10" guides="1" tooltips="1" connect="1" arrows="1" fold="1" page="1" pageScale="1" pageWidth="850" pageHeight="1100" math="0" shadow="0">
      <root>
        <mxCell id="0" />
        <mxCell id="1" parent="0" />
        <mxCell id="1X0x5inCpFuiQasvt-RB-12" value="" style="rounded=1;whiteSpace=wrap;html=1;dashed=1;strokeWidth=2;" vertex="1" parent="1">
          <mxGeometry x="240" y="30" width="360" height="240" as="geometry" />
        </mxCell>
        <mxCell id="1X0x5inCpFuiQasvt-RB-17" value="" style="edgeStyle=orthogonalEdgeStyle;rounded=0;orthogonalLoop=1;jettySize=auto;html=1;" edge="1" parent="1" source="1X0x5inCpFuiQasvt-RB-1" target="1X0x5inCpFuiQasvt-RB-12">
          <mxGeometry relative="1" as="geometry">
            <mxPoint x="400.32000000000016" y="150" as="targetPoint" />
          </mxGeometry>
        </mxCell>
        <mxCell id="1X0x5inCpFuiQasvt-RB-1" value="" style="rounded=1;whiteSpace=wrap;html=1;rotation=90;dashed=1;strokeWidth=2;" vertex="1" parent="1">
          <mxGeometry x="0.32" y="70.94" width="240" height="160" as="geometry" />
        </mxCell>
        <mxCell id="1X0x5inCpFuiQasvt-RB-2" value="Input &amp;amp; Config" style="text;html=1;align=center;verticalAlign=middle;resizable=0;points=[];autosize=1;strokeColor=none;fillColor=none;" vertex="1" parent="1">
          <mxGeometry x="70" width="100" height="30" as="geometry" />
        </mxCell>
        <mxCell id="1X0x5inCpFuiQasvt-RB-4" value="Paths to Executables" style="rounded=0;whiteSpace=wrap;html=1;" vertex="1" parent="1">
          <mxGeometry x="60" y="40" width="120" height="60" as="geometry" />
        </mxCell>
        <mxCell id="1X0x5inCpFuiQasvt-RB-5" value="PDB Entries" style="rounded=0;whiteSpace=wrap;html=1;" vertex="1" parent="1">
          <mxGeometry x="60" y="200" width="120" height="60" as="geometry" />
        </mxCell>
        <mxCell id="1X0x5inCpFuiQasvt-RB-10" value="" style="edgeStyle=orthogonalEdgeStyle;rounded=0;orthogonalLoop=1;jettySize=auto;html=1;" edge="1" parent="1" source="1X0x5inCpFuiQasvt-RB-6" target="1X0x5inCpFuiQasvt-RB-9">
          <mxGeometry relative="1" as="geometry" />
        </mxCell>
        <mxCell id="1X0x5inCpFuiQasvt-RB-6" value="AlphaFoldFetcher" style="rounded=0;whiteSpace=wrap;html=1;" vertex="1" parent="1">
          <mxGeometry x="280" y="40" width="120" height="60" as="geometry" />
        </mxCell>
        <mxCell id="1X0x5inCpFuiQasvt-RB-3" value="UniProt IDs" style="rounded=0;whiteSpace=wrap;html=1;" vertex="1" parent="1">
          <mxGeometry x="60" y="120" width="120" height="60" as="geometry" />
        </mxCell>
        <mxCell id="1X0x5inCpFuiQasvt-RB-19" value="" style="edgeStyle=orthogonalEdgeStyle;rounded=0;orthogonalLoop=1;jettySize=auto;html=1;" edge="1" parent="1" source="1X0x5inCpFuiQasvt-RB-9" target="1X0x5inCpFuiQasvt-RB-18">
          <mxGeometry relative="1" as="geometry" />
        </mxCell>
        <mxCell id="1X0x5inCpFuiQasvt-RB-9" value="DogSite3" style="rounded=0;whiteSpace=wrap;html=1;" vertex="1" parent="1">
          <mxGeometry x="440" y="40" width="120" height="60" as="geometry" />
        </mxCell>
        <mxCell id="1X0x5inCpFuiQasvt-RB-15" value="Pipeline" style="text;html=1;align=center;verticalAlign=middle;resizable=0;points=[];autosize=1;strokeColor=none;fillColor=none;" vertex="1" parent="1">
          <mxGeometry x="385" width="70" height="30" as="geometry" />
        </mxCell>
        <mxCell id="1X0x5inCpFuiQasvt-RB-21" value="" style="edgeStyle=orthogonalEdgeStyle;rounded=0;orthogonalLoop=1;jettySize=auto;html=1;" edge="1" parent="1" source="1X0x5inCpFuiQasvt-RB-18" target="1X0x5inCpFuiQasvt-RB-20">
          <mxGeometry relative="1" as="geometry" />
        </mxCell>
        <mxCell id="1X0x5inCpFuiQasvt-RB-18" value="Siena" style="rounded=0;whiteSpace=wrap;html=1;" vertex="1" parent="1">
          <mxGeometry x="440" y="120" width="120" height="60" as="geometry" />
        </mxCell>
        <mxCell id="1X0x5inCpFuiQasvt-RB-23" value="" style="edgeStyle=orthogonalEdgeStyle;rounded=0;orthogonalLoop=1;jettySize=auto;html=1;" edge="1" parent="1" source="1X0x5inCpFuiQasvt-RB-20" target="1X0x5inCpFuiQasvt-RB-22">
          <mxGeometry relative="1" as="geometry" />
        </mxCell>
        <mxCell id="1X0x5inCpFuiQasvt-RB-20" value="LigandExtractor" style="rounded=0;whiteSpace=wrap;html=1;" vertex="1" parent="1">
          <mxGeometry x="280" y="120" width="120" height="60" as="geometry" />
        </mxCell>
        <mxCell id="1X0x5inCpFuiQasvt-RB-25" value="" style="edgeStyle=orthogonalEdgeStyle;rounded=0;orthogonalLoop=1;jettySize=auto;html=1;" edge="1" parent="1" source="1X0x5inCpFuiQasvt-RB-22" target="1X0x5inCpFuiQasvt-RB-24">
          <mxGeometry relative="1" as="geometry" />
        </mxCell>
        <mxCell id="1X0x5inCpFuiQasvt-RB-22" value="LigandExtractor" style="rounded=0;whiteSpace=wrap;html=1;" vertex="1" parent="1">
          <mxGeometry x="280" y="200" width="120" height="60" as="geometry" />
        </mxCell>
        <mxCell id="1X0x5inCpFuiQasvt-RB-24" value="JamdaScorer" style="rounded=0;whiteSpace=wrap;html=1;" vertex="1" parent="1">
          <mxGeometry x="440" y="200" width="120" height="60" as="geometry" />
        </mxCell>
        <mxCell id="1X0x5inCpFuiQasvt-RB-27" value="" style="rounded=1;whiteSpace=wrap;html=1;dashed=1;strokeWidth=2;" vertex="1" parent="1">
          <mxGeometry x="640" y="30" width="160" height="240" as="geometry" />
        </mxCell>
        <mxCell id="1X0x5inCpFuiQasvt-RB-26" value="" style="sketch=0;html=1;aspect=fixed;shadow=0;verticalAlign=top;labelPosition=center;verticalLabelPosition=bottom;shape=mxgraph.gcp2.arrow_cycle;fillStyle=auto;" vertex="1" parent="1">
          <mxGeometry x="590" y="120" width="63.16" height="60" as="geometry" />
        </mxCell>
        <mxCell id="1X0x5inCpFuiQasvt-RB-28" value="Evaluation" style="text;html=1;align=center;verticalAlign=middle;resizable=0;points=[];autosize=1;strokeColor=none;fillColor=none;" vertex="1" parent="1">
          <mxGeometry x="680" width="80" height="30" as="geometry" />
        </mxCell>
        <mxCell id="1X0x5inCpFuiQasvt-RB-29" value="Global RMSD&lt;span style=&quot;color: rgba(0, 0, 0, 0); font-family: monospace; font-size: 0px; text-align: start; text-wrap-mode: nowrap;&quot;&gt;%3CmxGraphModel%3E%3Croot%3E%3CmxCell%20id%3D%220%22%2F%3E%3CmxCell%20id%3D%221%22%20parent%3D%220%22%2F%3E%3CmxCell%20id%3D%222%22%20value%3D%22DogSite3%22%20style%3D%22rounded%3D0%3BwhiteSpace%3Dwrap%3Bhtml%3D1%3B%22%20vertex%3D%221%22%20parent%3D%221%22%3E%3CmxGeometry%20x%3D%22440%22%20y%3D%2240%22%20width%3D%22120%22%20height%3D%2260%22%20as%3D%22geometry%22%2F%3E%3C%2FmxCell%3E%3C%2Froot%3E%3C%2FmxGraphModel%3E&lt;/span&gt;" style="rounded=0;whiteSpace=wrap;html=1;" vertex="1" parent="1">
          <mxGeometry x="660" y="40" width="120" height="60" as="geometry" />
        </mxCell>
        <mxCell id="1X0x5inCpFuiQasvt-RB-30" value="Local RMSD&lt;span style=&quot;color: rgba(0, 0, 0, 0); font-family: monospace; font-size: 0px; text-align: start; text-wrap-mode: nowrap;&quot;&gt;%3CmxGraphModel%3E%3Croot%3E%3CmxCell%20id%3D%220%22%2F%3E%3CmxCell%20id%3D%221%22%20parent%3D%220%22%2F%3E%3CmxCell%20id%3D%222%22%20value%3D%22DogSite3%22%20style%3D%22rounded%3D0%3BwhiteSpace%3Dwrap%3Bhtml%3D1%3B%22%20vertex%3D%221%22%20parent%3D%221%22%3E%3CmxGeometry%20x%3D%22440%22%20y%3D%2240%22%20width%3D%22120%22%20height%3D%2260%22%20as%3D%22geometry%22%2F%3E%3C%2FmxCell%3E%3C%2Froot%3E%3C%2FmxGraphModel%3E&lt;/span&gt;" style="rounded=0;whiteSpace=wrap;html=1;" vertex="1" parent="1">
          <mxGeometry x="660" y="120.94" width="120" height="60" as="geometry" />
        </mxCell>
        <mxCell id="1X0x5inCpFuiQasvt-RB-31" value="Transplant Clash Score" style="rounded=0;whiteSpace=wrap;html=1;" vertex="1" parent="1">
          <mxGeometry x="660" y="200" width="120" height="60" as="geometry" />
        </mxCell>
      </root>
    </mxGraphModel>
  </diagram>
</mxfile>
